<svg xmlns="http://www.w3.org/2000/svg" width="243" height="145" fill="none"><path fill="#99E39E" d="M45.24 113.5V96.34H3v-9.36L38.52 29.5h18.6v56.4h12v10.44h-12v17.16H45.24ZM16.08 85.9h29.76V37.42h-.48L16.08 85.9Zm150.912-7.61c-3.052 21.318-21.25 36.735-42.147 36.917l-1.427-6.937-.717-3.487-1.196-5.812 5.914-8.537 6.363-9.185-17.666-19.404 13.496-11.595 2.668-2.292-2.301-7.918-1.06-3.649-2.074-7.14c1.217.07 2.439.192 3.668.368 23.513 3.367 39.846 25.157 36.479 48.67Z"/><path fill="#99E39E" d="m119.121 99.651 5.724 15.557a43.403 43.403 0 0 1-6.515.539c-23.752.178-43.15-18.933-43.329-42.685-.168-22.512 16.989-41.114 39.003-43.147l8.164 17.687-13.912 16.142 20.362 16.553-9.497 19.354Z"/><path fill="#6FD776" d="M159.322 63a35.97 35.97 0 0 0-6.029-12.449 35.962 35.962 0 0 0-10.258-9.28 35.871 35.871 0 0 0-14.115-4.88l1.06 3.648a32.36 32.36 0 0 1 11.273 4.19 32.528 32.528 0 0 1 9.276 8.393 32.515 32.515 0 0 1 5.454 11.26 32.418 32.418 0 0 1 .738 12.936 32.522 32.522 0 0 1-12.732 21.487 32.55 32.55 0 0 1-11.259 5.454 32.313 32.313 0 0 1-10.029 1.024l.717 3.486c3.438.102 6.852-.29 10.193-1.171a35.937 35.937 0 0 0 12.449-6.03 35.958 35.958 0 0 0 9.281-10.257 35.858 35.858 0 0 0 4.798-13.503c.69-4.822.416-9.635-.817-14.307ZM122.4 108.56a36.355 36.355 0 0 1-4.121.263 35.978 35.978 0 0 1-25.595-10.377 35.968 35.968 0 0 1-7.818-11.412 35.863 35.863 0 0 1-2.942-14.025 35.86 35.86 0 0 1 2.732-14.067 35.967 35.967 0 0 1 7.646-11.527 35.963 35.963 0 0 1 11.412-7.82 35.802 35.802 0 0 1 13.406-2.93l1.593 3.45a32.419 32.419 0 0 0-13.63 2.652 32.524 32.524 0 0 0-10.321 7.071 32.533 32.533 0 0 0-6.917 10.425 32.43 32.43 0 0 0-2.467 12.72 32.43 32.43 0 0 0 2.658 12.682 32.536 32.536 0 0 0 7.072 10.32 32.536 32.536 0 0 0 23.145 9.386c.98-.008 1.952-.058 2.918-.151l1.229 3.34Z"/><path fill="#99E39E" d="M214.672 113.5V96.34h-42.24v-9.36l35.52-57.48h18.6v56.4h12v10.44h-12v17.16h-11.88Zm-29.16-27.6h29.76V37.42h-.48l-29.28 48.48Z"/></svg>