<svg xmlns="http://www.w3.org/2000/svg" width="141" height="41" fill="none"><rect width="140" height="40" x=".017" y=".227" fill="#fff" fill-opacity=".05" rx="8"/><path fill="#fff" d="M36.55 20.872a4.652 4.652 0 0 1 2.198-3.871 4.782 4.782 0 0 0-3.722-2.012c-1.566-.165-3.084.937-3.882.937-.813 0-2.041-.921-3.364-.894a4.997 4.997 0 0 0-4.171 2.544c-1.804 3.122-.459 7.711 1.269 10.235.864 1.236 1.874 2.616 3.196 2.567 1.294-.053 1.777-.824 3.338-.824 1.547 0 2 .825 3.349.793 1.387-.022 2.262-1.24 3.096-2.489a10.224 10.224 0 0 0 1.416-2.883 4.499 4.499 0 0 1-2.722-4.103Zm-2.547-7.543a4.544 4.544 0 0 0 1.04-3.255 4.623 4.623 0 0 0-2.992 1.547 4.363 4.363 0 0 0-1.066 3.135 3.867 3.867 0 0 0 3.018-1.427Zm13.27-4.628v5.585h2.016c1.664 0 2.628-1.026 2.628-2.81 0-1.757-.971-2.775-2.628-2.775h-2.016Zm.867.79h1.053c1.157 0 1.842.735 1.842 1.997 0 1.28-.674 2.008-1.842 2.008H48.14V9.491Zm6.729 4.876c1.23 0 1.985-.824 1.985-2.19 0-1.359-.759-2.187-1.985-2.187-1.231 0-1.99.828-1.99 2.187 0 1.366.755 2.19 1.99 2.19Zm0-.739c-.724 0-1.13-.53-1.13-1.451 0-.914.406-1.448 1.13-1.448.72 0 1.13.534 1.13 1.448 0 .917-.41 1.451-1.13 1.451Zm8.412-3.557h-.832l-.75 3.216h-.067l-.867-3.216h-.797l-.867 3.216h-.062l-.755-3.216h-.843l1.16 4.215h.856l.867-3.104h.066l.87 3.104h.864l1.157-4.215Zm.959 4.215h.831v-2.465c0-.658.391-1.069 1.007-1.069.615 0 .91.337.91 1.014v2.52h.831v-2.729c0-1.002-.519-1.567-1.459-1.567-.635 0-1.053.283-1.258.75h-.062v-.669h-.8v4.215Zm4.89 0h.832v-5.86h-.833v5.86Zm3.961.081c1.23 0 1.986-.824 1.986-2.19 0-1.359-.76-2.187-1.986-2.187-1.23 0-1.99.828-1.99 2.187 0 1.366.755 2.19 1.99 2.19Zm0-.739c-.724 0-1.13-.53-1.13-1.451 0-.914.406-1.448 1.13-1.448.72 0 1.13.534 1.13 1.448 0 .917-.41 1.451-1.13 1.451Zm4.465.027c-.453 0-.782-.22-.782-.6 0-.371.263-.569.844-.607l1.03-.066v.352c0 .523-.465.921-1.092.921Zm-.213.7c.553 0 1.014-.24 1.266-.661h.065v.592h.801v-2.88c0-.89-.596-1.416-1.652-1.416-.956 0-1.637.464-1.722 1.188h.805c.093-.298.414-.468.878-.468.569 0 .863.252.863.697v.363l-1.142.066c-1.002.062-1.567.5-1.567 1.258 0 .77.592 1.262 1.405 1.262Zm4.957.001c.58 0 1.071-.275 1.323-.736h.066v.666h.797v-5.86h-.832v2.315h-.062c-.229-.464-.716-.74-1.293-.74-1.064 0-1.75.845-1.75 2.176 0 1.335.678 2.179 1.75 2.179Zm.235-3.607c.697 0 1.134.553 1.134 1.432 0 .882-.433 1.428-1.134 1.428-.704 0-1.126-.538-1.126-1.432 0-.886.426-1.428 1.126-1.428Zm7.347 3.618c1.23 0 1.985-.824 1.985-2.19 0-1.359-.758-2.187-1.985-2.187-1.231 0-1.99.828-1.99 2.187 0 1.366.755 2.19 1.99 2.19Zm0-.739c-.724 0-1.13-.53-1.13-1.451 0-.914.406-1.448 1.13-1.448.72 0 1.13.534 1.13 1.448 0 .917-.41 1.451-1.13 1.451Zm3.087.658h.832v-2.465c0-.658.39-1.069 1.006-1.069.615 0 .91.337.91 1.014v2.52h.832v-2.729c0-1.002-.519-1.567-1.46-1.567-.634 0-1.052.283-1.257.75h-.062v-.669h-.801v4.215Zm7.412-5.263v1.068h-.67v.7h.67v2.38c0 .813.368 1.138 1.292 1.138.163 0 .318-.019.453-.042v-.693c-.116.012-.189.02-.317.02-.414 0-.596-.194-.596-.635V10.79h.913v-.7h-.913V9.023h-.832Zm2.862 5.263h.832v-2.461c0-.639.379-1.068 1.061-1.068.588 0 .902.34.902 1.014v2.515h.832v-2.72c0-1.003-.554-1.572-1.451-1.572-.636 0-1.08.283-1.286.755h-.065V8.427h-.825v5.86Zm6.628-3.588c.616 0 1.018.43 1.038 1.092h-2.129c.047-.658.476-1.092 1.091-1.092Zm1.034 2.45c-.155.33-.5.511-1.003.511-.666 0-1.095-.468-1.122-1.208v-.046h2.976v-.29c0-1.324-.708-2.125-1.88-2.125-1.189 0-1.944.855-1.944 2.202s.74 2.175 1.947 2.175c.964 0 1.638-.464 1.827-1.219h-.801Zm-19.736 5.55v2.136h-1.34v1.401h1.34v4.76c0 1.626.735 2.277 2.585 2.277.325 0 .635-.04.905-.086v-1.385c-.232.023-.379.039-.634.039-.828 0-1.192-.387-1.192-1.27v-4.335h1.826v-1.4h-1.826v-2.137h-1.664Zm8.203 10.69c2.462 0 3.971-1.65 3.971-4.382 0-2.716-1.517-4.373-3.97-4.373-2.462 0-3.98 1.657-3.98 4.373 0 2.733 1.51 4.382 3.98 4.382Zm0-1.479c-1.447 0-2.26-1.06-2.26-2.902 0-1.827.813-2.895 2.26-2.895 1.44 0 2.26 1.068 2.26 2.895 0 1.834-.82 2.902-2.26 2.902Zm5.263 1.316h1.664v-4.977c0-1.184.89-1.982 2.151-1.982.294 0 .79.055.93.101v-1.641a3.519 3.519 0 0 0-.744-.07c-1.098 0-2.035.604-2.276 1.432h-.123v-1.292h-1.602v8.429Zm8.877-7.175c1.23 0 2.036.859 2.074 2.182h-4.257c.092-1.315.952-2.182 2.183-2.182Zm2.066 4.9c-.309.657-.998 1.021-2.005 1.021-1.33 0-2.19-.936-2.244-2.415v-.093h5.953v-.58c0-2.648-1.417-4.25-3.763-4.25-2.376 0-3.886 1.71-3.886 4.405 0 2.693 1.479 4.35 3.894 4.35 1.928 0 3.274-.93 3.654-2.439h-1.603Zm-35.323-.838c.128 2.07 1.853 3.394 4.42 3.394 2.744 0 4.461-1.388 4.461-3.603 0-1.74-.978-2.703-3.353-3.257l-1.276-.313c-1.508-.353-2.118-.826-2.118-1.652 0-1.043.947-1.725 2.367-1.725 1.348 0 2.278.666 2.447 1.733h1.749c-.105-1.95-1.822-3.322-4.172-3.322-2.527 0-4.212 1.372-4.212 3.434 0 1.7.955 2.712 3.049 3.201l1.492.361c1.532.361 2.206.89 2.206 1.773 0 1.027-1.059 1.773-2.503 1.773-1.548 0-2.623-.698-2.776-1.797h-1.781Zm-17.239-5.456c-1.146 0-2.137.573-2.648 1.533h-.123v-1.393h-1.602v11.231h1.664v-4.08h.131c.441.891 1.393 1.417 2.593 1.417 2.129 0 3.483-1.68 3.483-4.358s-1.354-4.35-3.498-4.35Zm-.472 7.214c-1.394 0-2.268-1.099-2.268-2.856 0-1.765.874-2.864 2.275-2.864 1.41 0 2.253 1.076 2.253 2.857 0 1.787-.844 2.863-2.26 2.863Zm9.794-7.214c-1.146 0-2.137.573-2.647 1.533h-.124v-1.393h-1.602v11.231h1.664v-4.08h.131c.441.891 1.393 1.417 2.593 1.417 2.129 0 3.483-1.68 3.483-4.358s-1.354-4.35-3.498-4.35Zm-.472 7.214c-1.394 0-2.268-1.099-2.268-2.856 0-1.765.874-2.864 2.275-2.864 1.41 0 2.253 1.076 2.253 2.857 0 1.787-.844 2.863-2.26 2.863Zm-16.209 1.355h1.91l-4.18-11.577h-1.934l-4.18 11.577h1.845l1.067-3.073h4.413l1.059 3.073Zm-3.33-9.475h.137l1.676 4.894h-3.498l1.685-4.894Z"/></svg>