<svg xmlns="http://www.w3.org/2000/svg" width="135" height="32" fill="none"><path fill="#fff" d="M6.353 7.765a15.408 15.408 0 0 1 5.119-4.09 16.08 16.08 0 0 1 6.437-1.659c2.245-.1 4.487.267 6.57 1.076a15.583 15.583 0 0 1 5.496 3.613l-5.132 4.61a8.529 8.529 0 0 0-3.008-1.979 8.844 8.844 0 0 0-7.12.32 8.434 8.434 0 0 0-2.803 2.238l-5.56-4.129ZM30 24.661a15.478 15.478 0 0 1-5.273 3.906A16.111 16.111 0 0 1 18.231 30a16.13 16.13 0 0 1-6.525-1.306 15.516 15.516 0 0 1-5.353-3.804l5.305-4.425a8.493 8.493 0 0 0 2.93 2.082 8.83 8.83 0 0 0 3.572.715 8.82 8.82 0 0 0 3.556-.784 8.474 8.474 0 0 0 2.887-2.138L30 24.66Z"/><path fill="#99E39E" d="M14.783 16.284 6.26 22.99V9.58l8.521 6.705Z"/><path fill="#99E39E" d="M10.521 16.284 2 22.99V9.58l8.521 6.705Z"/><path fill="#fff" d="M51.296 23.94c-1.918 0-3.578-.413-4.98-1.239-1.383-.844-2.453-2.01-3.21-3.498C42.37 17.698 42 15.963 42 13.998c0-1.983.369-3.718 1.107-5.206.756-1.505 1.826-2.68 3.21-3.525C47.717 4.422 49.377 4 51.296 4c2.305 0 4.186.57 5.644 1.708 1.457 1.12 2.379 2.708 2.766 4.764h-3.652c-.258-1.083-.784-1.937-1.577-2.561-.793-.624-1.863-.936-3.21-.936-1.217 0-2.268.284-3.154.853-.866.551-1.54 1.36-2.02 2.424-.46 1.047-.69 2.295-.69 3.746 0 1.45.23 2.699.69 3.746.48 1.028 1.154 1.827 2.02 2.396.886.55 1.937.826 3.155.826 1.346 0 2.416-.285 3.209-.854.793-.587 1.319-1.395 1.577-2.423h3.652c-.369 1.946-1.29 3.48-2.767 4.6-1.457 1.1-3.338 1.652-5.644 1.652Zm11.273-.33V9.73h2.96l.304 2.589a5.401 5.401 0 0 1 1.245-1.543c.498-.44 1.08-.78 1.743-1.019a6.747 6.747 0 0 1 2.242-.358v3.498H69.9a5.58 5.58 0 0 0-1.577.22 3.235 3.235 0 0 0-1.3.662c-.35.293-.627.707-.83 1.239-.203.514-.304 1.166-.304 1.956v6.637h-3.32Zm12.407 6.06 3.403-7.602h-.83l-5.56-12.34h3.624l4.15 9.42 3.929-9.42h3.514L78.49 29.67h-3.514Zm14.356 0V9.729h2.96l.36 2.01a6.7 6.7 0 0 1 1.051-1.129 4.935 4.935 0 0 1 1.522-.881c.608-.22 1.3-.33 2.075-.33 1.31 0 2.462.32 3.458.963a6.67 6.67 0 0 1 2.38 2.617c.571 1.083.857 2.323.857 3.718 0 1.396-.295 2.644-.885 3.746a6.521 6.521 0 0 1-2.379 2.561c-.996.624-2.14.937-3.431.937-1.052 0-1.974-.193-2.767-.579a4.94 4.94 0 0 1-1.881-1.707v8.014h-3.32Zm7.276-8.594c.775 0 1.466-.183 2.075-.55a3.693 3.693 0 0 0 1.411-1.543c.351-.661.526-1.423.526-2.286 0-.881-.175-1.652-.526-2.313a3.693 3.693 0 0 0-1.41-1.543c-.61-.367-1.301-.55-2.076-.55-.793 0-1.494.183-2.103.55-.59.367-1.06.882-1.41 1.543-.333.66-.499 1.422-.499 2.285 0 .882.166 1.653.498 2.314.35.643.821 1.157 1.411 1.542.609.368 1.31.551 2.103.551Z"/><path fill="#99E39E" d="M111.996 30c-1.309 0-2.462-.165-3.458-.496-.978-.312-1.743-.799-2.296-1.46-.535-.642-.803-1.45-.803-2.423 0-.57.139-1.13.415-1.68.295-.533.729-1.029 1.301-1.488.59-.477 1.337-.89 2.241-1.239l1.466 1.597c-.885.313-1.503.689-1.854 1.13-.35.44-.525.89-.525 1.35 0 .477.147.871.442 1.184.314.33.729.578 1.245.743a6.084 6.084 0 0 0 1.799.248c.645 0 1.208-.092 1.687-.275.48-.166.849-.404 1.107-.716.277-.313.415-.689.415-1.13 0-.55-.194-1-.581-1.35-.387-.33-1.153-.532-2.296-.605a26.882 26.882 0 0 1-2.573-.303 14.922 14.922 0 0 1-1.909-.496 7.447 7.447 0 0 1-1.328-.606 5.585 5.585 0 0 1-.913-.716v-.633l2.905-3.03 2.462.799-3.265 3.167.858-1.597c.184.128.369.247.553.358.203.11.452.21.747.303.314.073.72.146 1.218.22a37.45 37.45 0 0 0 1.936.22c1.236.092 2.242.312 3.016.661.775.35 1.347.817 1.716 1.405.368.588.553 1.294.553 2.12 0 .809-.231 1.57-.692 2.287-.442.716-1.125 1.303-2.047 1.762-.922.46-2.103.689-3.542.689Zm0-10.549c-1.162 0-2.167-.22-3.015-.66-.83-.46-1.467-1.066-1.909-1.819a4.998 4.998 0 0 1-.664-2.533c0-.937.221-1.781.664-2.534.442-.753 1.079-1.36 1.909-1.818.848-.46 1.853-.689 3.015-.689 1.162 0 2.158.23 2.988.689.831.459 1.467 1.065 1.91 1.818.442.753.664 1.597.664 2.534a5.01 5.01 0 0 1-.664 2.534c-.443.752-1.079 1.358-1.91 1.817-.83.44-1.826.661-2.988.661Zm0-2.561c.794 0 1.43-.211 1.909-.634.48-.422.72-1.028.72-1.817 0-.79-.24-1.387-.72-1.79-.479-.423-1.115-.634-1.909-.634-.793 0-1.438.211-1.936.633-.498.404-.747 1.001-.747 1.79 0 .79.249 1.396.747 1.818.498.423 1.143.634 1.936.634Zm2.297-4.738-.637-2.423h5.728v2.066l-5.091.357ZM128 23.94c-1.328 0-2.527-.302-3.597-.908a6.798 6.798 0 0 1-2.49-2.562c-.59-1.101-.885-2.36-.885-3.773 0-1.45.304-2.717.913-3.8.609-1.103 1.439-1.956 2.49-2.562 1.07-.625 2.269-.937 3.597-.937 1.328 0 2.518.312 3.569.937 1.07.606 1.9 1.45 2.49 2.534.609 1.083.913 2.35.913 3.8 0 1.451-.304 2.718-.913 3.801a6.732 6.732 0 0 1-2.518 2.562c-1.051.606-2.241.909-3.569.909Zm0-2.836a3.35 3.35 0 0 0 1.799-.496c.553-.33.996-.826 1.328-1.487.332-.661.498-1.478.498-2.451 0-.974-.166-1.782-.498-2.424-.314-.661-.747-1.157-1.301-1.488a3.351 3.351 0 0 0-1.798-.495c-.646 0-1.245.165-1.799.495-.553.331-.996.827-1.328 1.488-.332.642-.498 1.45-.498 2.423 0 .974.166 1.79.498 2.452.332.66.766 1.157 1.301 1.487a3.45 3.45 0 0 0 1.798.496Z"/></svg>