<svg xmlns="http://www.w3.org/2000/svg" width="118" height="32" fill="none"><path fill="#fff" d="M40.025 21.636h2.56V9.593h-2.56v12.043Zm7.809.268c2.677 0 4.433-1.723 4.433-4.767 0-2.944-1.706-4.784-4.433-4.784-2.676 0-4.416 1.723-4.416 4.784 0 2.96 1.69 4.767 4.416 4.767Zm0-2.074c-1.154 0-1.79-.954-1.79-2.693 0-1.757.62-2.71 1.79-2.71 1.171 0 1.807.97 1.807 2.71 0 1.756-.62 2.693-1.807 2.693Zm8.596 1.823c.97 0 1.774-.401 2.342-1.188v1.506c0 1.255-.618 1.673-1.538 1.673-.887 0-1.573-.435-1.673-1.238H53c.318 2.191 1.974 3.195 4.266 3.195 2.358 0 4.065-1.255 4.065-3.663v-9.3h-2.56v.835c-.552-.736-1.338-1.12-2.341-1.12-2.242 0-3.697 1.672-3.697 4.667 0 2.86 1.422 4.633 3.697 4.633Zm.62-2.074c-1.104 0-1.69-.92-1.69-2.56 0-1.689.586-2.592 1.69-2.592 1.12 0 1.722.92 1.722 2.576 0 1.673-.585 2.576-1.722 2.576Zm9.546 2.325c2.676 0 4.433-1.723 4.433-4.767 0-2.944-1.706-4.784-4.433-4.784-2.676 0-4.416 1.723-4.416 4.784 0 2.96 1.69 4.767 4.416 4.767Zm0-2.074c-1.154 0-1.79-.954-1.79-2.693 0-1.757.62-2.71 1.79-2.71 1.171 0 1.807.97 1.807 2.71 0 1.756-.62 2.693-1.807 2.693Zm5.284-8.096h2.56V9.593h-2.56v2.14Zm0 9.902h2.56v-9h-2.56v9Zm6.338 3.697v-4.6c.535.77 1.304 1.171 2.258 1.171 2.291 0 3.78-1.723 3.78-4.784 0-2.944-1.455-4.767-3.78-4.767-.937 0-1.707.435-2.258 1.22v-.936h-2.56v12.696h2.56Zm1.722-10.906c1.088 0 1.69.953 1.69 2.693 0 1.756-.586 2.71-1.69 2.71-1.12 0-1.722-.97-1.722-2.71s.585-2.693 1.722-2.693Zm7.39.703c0-.486.434-.82 1.104-.82.903 0 1.438.385 1.589 1.305h2.542c-.25-2.275-1.89-3.262-4.048-3.262-2.408 0-3.63 1.405-3.63 2.91 0 3.613 5.454 2.058 5.454 3.797 0 .552-.452.904-1.355.904-.954 0-1.64-.452-1.757-1.288h-2.56c.335 2.224 1.975 3.228 4.25 3.228 2.341 0 3.98-1.221 3.98-2.994 0-3.563-5.57-2.007-5.57-3.78Zm11.875 2.676c0 1.154-.635 2.024-1.622 2.024-.903 0-1.338-.569-1.338-1.723v-5.47h-2.56v5.988c0 2.242 1.255 3.279 2.961 3.279 1.087 0 1.974-.468 2.56-1.472v1.204h2.559v-8.999h-2.56v5.169Zm3.796 3.83h2.559v-5.168c0-1.155.586-2.041 1.472-2.041.82 0 1.221.585 1.221 1.723v5.486h2.543v-5.168c0-1.155.602-2.041 1.489-2.041.819 0 1.204.585 1.204 1.723v5.486h2.559v-6.005c0-2.224-1.238-3.278-2.91-3.278-1.121 0-2.074.468-2.693 1.489-.452-1.004-1.355-1.49-2.426-1.49-1.037 0-1.89.452-2.459 1.423v-1.138h-2.559v9Z"/><path fill="#99E39E" fill-opacity=".4" d="M30.319 25.311c2.772-2.476 4.473-5.817 4.473-9.493C34.791 8.187 27.465 2 18.427 2 9.39 2 2.064 8.187 2.064 15.818c0 7.632 7.326 13.818 16.364 13.818 2.564 0 4.99-.497 7.15-1.385 2.538 1.566 5.647 2.692 9.08 2.455-1.814-.462-3.374-2.33-4.339-5.395Z"/><path fill="#99E39E" fill-opacity=".6" d="M30.428 15.818c0 5.623-5.373 10.182-12 10.182-6.628 0-12-4.559-12-10.182s5.372-10.182 12-10.182c6.627 0 12 4.559 12 10.182Z"/><path fill="#99E39E" d="M26.064 15.818c0 3.615-3.419 6.546-7.636 6.546-4.218 0-7.637-2.93-7.637-6.546 0-3.615 3.42-6.545 7.637-6.545s7.636 2.93 7.636 6.545Z"/></svg>