<svg xmlns="http://www.w3.org/2000/svg" width="131" height="32" fill="none"><g clip-path="url(#a)"><path fill="#fff" d="M38.94 22.244h9.33v-2.81h-6.014V8.851h-3.315v13.393Zm14.856-1.874c-1.33 0-2.023-1.16-2.023-2.903 0-1.742.693-2.922 2.023-2.922s2.042 1.18 2.042 2.922c0 1.742-.712 2.904-2.042 2.904Zm.019 2.174c3.09 0 5.114-2.192 5.114-5.077 0-2.884-2.023-5.076-5.114-5.076-3.072 0-5.133 2.191-5.133 5.076s2.06 5.077 5.133 5.077Zm10.463 3.016c1.424 0 2.679-.32 3.522-1.069.768-.693 1.274-1.742 1.274-3.184v-8.654H66.15v1.03h-.037c-.562-.805-1.424-1.31-2.697-1.31-2.38 0-4.028 1.985-4.028 4.794 0 2.941 2.005 4.552 4.159 4.552 1.161 0 1.892-.468 2.454-1.105h.075v.955c0 1.162-.544 1.836-1.836 1.836-1.012 0-1.517-.43-1.686-.937h-2.96c.3 2.005 2.042 3.091 4.683 3.091Zm-.019-6.107c-1.142 0-1.891-.937-1.891-2.38 0-1.46.749-2.397 1.892-2.397 1.273 0 1.948 1.086 1.948 2.379 0 1.349-.618 2.398-1.948 2.398Zm10.823.917c-1.33 0-2.023-1.16-2.023-2.903 0-1.742.693-2.922 2.023-2.922s2.042 1.18 2.042 2.922c0 1.742-.712 2.904-2.042 2.904Zm.019 2.174c3.09 0 5.114-2.192 5.114-5.077 0-2.884-2.023-5.076-5.114-5.076-3.072 0-5.133 2.191-5.133 5.076s2.06 5.077 5.133 5.077Zm6.005-.3h3.053v-9.59h-3.053v9.59Zm0-10.92h3.053V8.85h-3.053v2.472Zm4.378 14.086h3.053v-4.16h.038c.599.806 1.48 1.293 2.716 1.293 2.51 0 4.177-1.985 4.177-5.095 0-2.884-1.555-5.076-4.102-5.076-1.312 0-2.248.58-2.904 1.442h-.056v-1.161h-2.922v12.756Zm5.02-5.227c-1.311 0-2.06-1.067-2.06-2.622s.674-2.735 2.004-2.735c1.311 0 1.93 1.086 1.93 2.735 0 1.63-.713 2.622-1.874 2.622Zm9.936 2.36c2.51 0 4.364-1.086 4.364-3.184 0-2.454-1.985-2.885-3.671-3.166-1.218-.224-2.304-.318-2.304-.992 0-.6.58-.88 1.33-.88.843 0 1.423.261 1.536 1.123h2.809c-.149-1.892-1.611-3.072-4.327-3.072-2.266 0-4.14 1.049-4.14 3.072 0 2.248 1.78 2.697 3.447 2.978 1.274.225 2.435.319 2.435 1.18 0 .619-.58.956-1.498.956-1.012 0-1.649-.468-1.76-1.424h-2.886c.094 2.117 1.855 3.41 4.665 3.41Zm8.511-.018c1.33 0 2.173-.525 2.866-1.461h.056v1.18h2.922v-9.59h-3.053v5.356c0 1.143-.637 1.93-1.686 1.93-.974 0-1.442-.581-1.442-1.63v-5.657h-3.035v6.294c0 2.135 1.161 3.578 3.372 3.578Zm7.173-.281h3.053v-5.376c0-1.143.562-1.948 1.517-1.948.918 0 1.349.599 1.349 1.63v5.694h3.053v-5.376c0-1.143.543-1.948 1.517-1.948.918 0 1.349.599 1.349 1.63v5.694h3.053v-6.238c0-2.154-1.086-3.634-3.259-3.634-1.236 0-2.267.525-3.016 1.686h-.037c-.487-1.03-1.443-1.686-2.698-1.686-1.386 0-2.304.656-2.903 1.649h-.056v-1.368h-2.922v9.59Z"/><path fill="#7F57F1" fill-rule="evenodd" d="M7.74 2.808a15.7 15.7 0 0 0-3.003 2.743c3.582-.332 8.132.21 13.416 2.852 5.641 2.821 10.184 2.916 13.346 2.307a15.53 15.53 0 0 0-1.076-2.497c-3.619.381-8.259-.124-13.666-2.828-3.434-1.717-6.461-2.424-9.017-2.577Zm20.57 2.395A15.57 15.57 0 0 0 16.673 0c-1.358 0-2.675.173-3.93.5 1.7.463 3.507 1.142 5.409 2.093 3.959 1.98 7.377 2.617 10.156 2.61Zm3.865 8.556c-3.82.754-9.094.599-15.418-2.563-5.913-2.957-10.62-2.92-13.793-2.214-.164.036-.324.074-.48.114a15.493 15.493 0 0 0-.985 2.841c.254-.068.517-.132.788-.193 3.85-.855 9.29-.818 15.866 2.47 5.912 2.956 10.618 2.919 13.792 2.213.109-.024.216-.049.322-.075a15.907 15.907 0 0 0-.092-2.594Zm-.418 5.888c-3.783.661-8.904.407-15-2.641-5.913-2.957-10.62-2.92-13.793-2.214a15.49 15.49 0 0 0-1.897.549c-.002.09-.003.179-.003.269 0 8.62 6.99 15.61 15.61 15.61 7.225 0 13.304-4.91 15.083-11.573Z" clip-rule="evenodd"/></g><defs><clipPath id="a"><path fill="#fff" d="M.503 0h130.341v32H.504z"/></clipPath></defs></svg>