<svg xmlns="http://www.w3.org/2000/svg" width="132" height="32" fill="none"><g clip-path="url(#a)"><path fill="#fff" d="M39.277 21.877h9.328v-2.81h-6.012V8.483h-3.316v13.394Zm14.855-1.874c-1.33 0-2.023-1.161-2.023-2.903s.693-2.922 2.023-2.922 2.042 1.18 2.042 2.922c0 1.742-.712 2.903-2.042 2.903Zm.019 2.173c3.09 0 5.114-2.191 5.114-5.076s-2.023-5.076-5.114-5.076c-3.072 0-5.133 2.191-5.133 5.076s2.06 5.076 5.133 5.076Zm10.463 3.016c1.424 0 2.679-.318 3.522-1.068.768-.693 1.274-1.742 1.274-3.184v-8.654h-2.922v1.03h-.038c-.562-.805-1.424-1.311-2.697-1.311-2.38 0-4.028 1.985-4.028 4.795 0 2.941 2.005 4.552 4.159 4.552 1.161 0 1.892-.468 2.454-1.105h.075v.955c0 1.161-.544 1.836-1.836 1.836-1.012 0-1.517-.431-1.686-.937h-2.96c.3 2.005 2.042 3.091 4.683 3.091Zm-.018-6.107c-1.143 0-1.892-.936-1.892-2.379 0-1.46.749-2.397 1.892-2.397 1.273 0 1.948 1.086 1.948 2.379 0 1.349-.618 2.398-1.948 2.398Zm10.822.918c-1.33 0-2.023-1.161-2.023-2.903s.693-2.922 2.023-2.922 2.042 1.18 2.042 2.922c0 1.742-.712 2.903-2.042 2.903Zm.019 2.173c3.09 0 5.113-2.191 5.113-5.076s-2.022-5.076-5.113-5.076c-3.072 0-5.132 2.191-5.132 5.076s2.06 5.076 5.132 5.076Zm6.005-.299h3.054v-9.591h-3.054v9.59Zm0-10.921h3.054V8.483h-3.054v2.473Zm4.378 14.086h3.054v-4.158h.037c.6.805 1.48 1.292 2.716 1.292 2.51 0 4.177-1.985 4.177-5.095 0-2.884-1.555-5.076-4.102-5.076-1.311 0-2.248.58-2.903 1.442h-.057v-1.161H85.82v12.756Zm5.02-5.226c-1.31 0-2.06-1.068-2.06-2.622 0-1.555.674-2.735 2.004-2.735 1.311 0 1.93 1.086 1.93 2.735 0 1.63-.712 2.622-1.874 2.622Zm9.935 2.36c2.51 0 4.365-1.086 4.365-3.184 0-2.454-1.986-2.885-3.672-3.166-1.217-.225-2.304-.318-2.304-.993 0-.599.58-.88 1.33-.88.843 0 1.424.262 1.536 1.124h2.81c-.15-1.892-1.611-3.072-4.327-3.072-2.267 0-4.14 1.049-4.14 3.072 0 2.248 1.78 2.697 3.447 2.978 1.274.225 2.435.319 2.435 1.18 0 .619-.581.956-1.499.956-1.011 0-1.648-.469-1.76-1.424H96.11c.093 2.117 1.854 3.41 4.664 3.41Zm8.512-.019c1.33 0 2.173-.524 2.866-1.46h.056v1.18h2.922v-9.591h-3.053v5.357c0 1.143-.637 1.93-1.686 1.93-.974 0-1.442-.581-1.442-1.63v-5.657h-3.035v6.294c0 2.135 1.162 3.578 3.372 3.578Zm7.173-.28h3.053V16.5c0-1.142.562-1.948 1.517-1.948.918 0 1.349.6 1.349 1.63v5.695h3.053V16.5c0-1.142.543-1.948 1.518-1.948.917 0 1.348.6 1.348 1.63v5.695h3.053v-6.238c0-2.154-1.086-3.634-3.259-3.634-1.236 0-2.266.524-3.016 1.686h-.037c-.487-1.03-1.442-1.686-2.698-1.686-1.386 0-2.304.655-2.903 1.648h-.056v-1.367h-2.922v9.59Z"/><path fill="#F97316" d="M20.649.823 17.579 0l-2.587 9.654L12.657.938l-3.07.823 2.523 9.417-6.285-6.285L3.578 7.14l6.894 6.894-8.585-2.3-.823 3.07 9.38 2.513a6.356 6.356 0 1 1 12.386-.009l8.525 2.284.823-3.07L22.76 14l8.586-2.3-.823-3.07-9.417 2.523 6.285-6.285-2.247-2.247-6.798 6.798L20.649.823Z"/><path fill="#F97316" d="M22.822 17.343a6.344 6.344 0 0 1-1.581 2.913l6.176 6.176 2.247-2.247-6.842-6.842Zm-1.644 2.978a6.352 6.352 0 0 1-2.84 1.68l2.247 8.387 3.07-.823-2.477-9.244Zm-2.955 1.71a6.368 6.368 0 0 1-3.282-.029l-2.25 8.395 3.07.822 2.462-9.188Zm-3.39-.06a6.355 6.355 0 0 1-2.79-1.704L5.85 26.458l2.247 2.248 6.735-6.735Zm-2.843-1.759a6.342 6.342 0 0 1-1.541-2.877l-8.553 2.292.823 3.07 9.272-2.485Z"/></g><defs><clipPath id="a"><path fill="#fff" d="M.381 0h131.122v32H.381z"/></clipPath></defs></svg>