<svg xmlns="http://www.w3.org/2000/svg" width="188" height="32" fill="none"><g clip-path="url(#a)"><path fill="#0B280D" d="m30.56 25.298.003.002-5.05 4.431a5.8 5.8 0 0 1-3.77 1.484H4.426a4.204 4.204 0 0 1-3.405-1.51 4.157 4.157 0 0 1-.843-3.616l1.333-6.784c.118-.59.431-1.125.89-1.518l.065-.056a2.22 2.22 0 0 1-.315-1.71l1.335-6.796.002-.01c.26-1.22.914-2.32 1.863-3.135l4.623-4.056A5.952 5.952 0 0 1 14.258 0h.022l17.327.05a4.204 4.204 0 0 1 3.403 1.51 4.157 4.157 0 0 1 .843 3.616l-3.31 16.894-.005.02a5.906 5.906 0 0 1-1.977 3.208Z"/><path fill="#99E39E" d="M31.336 1.61a2.922 2.922 0 0 1 2.985 3.62l-3.296 16.904a4.67 4.67 0 0 1-4.402 3.619H9.383a2.928 2.928 0 0 1-2.991-3.619l1.33-6.839a1.554 1.554 0 0 1 1.467-1.2c3.146.112 6.168.348 8.985 1.362l.622 3.91a.386.386 0 0 0 .404.324.622.622 0 0 0 .534-.324l2.127-3.91 4.253-1.343a.621.621 0 0 0 .416-.454.386.386 0 0 0-.242-.46l-3.73-1.337-.623-3.91a.392.392 0 0 0-.404-.33.622.622 0 0 0-.534.33l-2.127 3.91a34.973 34.973 0 0 1-9.482 1.356.975.975 0 0 1-1.032-1.2l1.33-6.84a4.662 4.662 0 0 1 4.397-3.618l17.253.05Z"/><path fill="#fff" d="M137.395 24.198c-3.197 0-5.465-1.304-6.18-3.764l4.18-1.894c.297 1.009 1.163 1.476 2.737 1.476 1.223 0 2.213-.369 2.351-1.156.174-.984-.799-1.131-2.283-1.353-2.458-.369-5.985-1.328-5.287-5.288.538-3.05 3.722-5.386 7.469-5.386 2.947 0 5.214 1.303 5.93 3.763l-4.18 1.894c-.332-.812-1.114-1.476-2.688-1.476-1.099 0-1.759.344-1.88 1.033-.164.934.882 1.23 2.487 1.476 2.433.369 5.765 1.303 5.062 5.288-.538 3.05-3.972 5.387-7.718 5.387Zm25.4-.394h4.695l3.693-11.732.934 9.715c.127 1.402 1.254 2.09 2.628 2.09 1.399 0 2.699-.713 3.383-2.188l4.364-9.593-.716 11.708h4.671l.448-13.872c.056-2.017-1.102-3.1-3.075-3.1-1.798 0-3.465.812-4.265 2.657l-3.812 8.732-.745-8.806c-.149-1.845-1.493-2.582-3.241-2.582-2.023 0-3.609 1.057-4.28 3.025l-4.682 13.946Zm-15.664-7.502c-.867 4.92.999 7.797 6.293 7.797 5.27 0 8.2-2.878 9.067-7.797l1.605-9.1h-4.62l-1.583 8.977c-.451 2.558-1.637 3.616-3.71 3.616-2.048 0-2.86-1.058-2.409-3.616l1.583-8.978h-4.621l-1.605 9.101Z"/><path fill="#fff" fill-rule="evenodd" d="m115.693 23.804 4.626-.025.711-4.034h2.097c4.896 0 8.085-2.36 8.787-6.345.681-3.862-1.829-6.199-6.824-6.199h-6.469l-2.928 16.603Zm6.811-12.421h1.973c1.998 0 2.921.713 2.692 2.017-.248 1.402-1.356 2.164-3.429 2.164h-1.973l.737-4.181Z" clip-rule="evenodd"/><path fill="#fff" d="M111.01 7.201h4.621l-2.928 16.603h-4.62L111.01 7.2Z"/><path fill="#fff" fill-rule="evenodd" d="M90.002 15.515c-.872 4.944 2.27 8.658 7.365 8.658 5.095 0 9.546-3.714 10.418-8.658.871-4.944-2.27-8.658-7.365-8.658-5.095 0-9.546 3.714-10.418 8.658Zm13.037 0c-.434 2.46-2.566 4.353-4.914 4.353-2.347 0-3.811-1.894-3.378-4.353.434-2.46 2.566-4.354 4.914-4.354 2.347 0 3.812 1.894 3.378 4.354Z" clip-rule="evenodd"/><path fill="#fff" d="M80.341 24.173c-5.045 0-8.219-3.813-7.364-8.658.854-4.846 5.322-8.658 10.417-8.658 2.997 0 5.676 1.525 6.41 4.304l-4.136 2.066c-.479-1.254-1.28-2.09-3.228-2.09-2.373 0-4.271 1.844-4.731 4.452-.481 2.73.809 4.476 3.356 4.476 1.35 0 2.22-.123 3.057-.762l.387-2.288-4.323-1.91h9.128l-.128.779h.01l-.143.808-.009.053-.716 4.058c-1.645 1.968-4.59 3.37-7.987 3.37Z"/><path fill="#fff" fill-rule="evenodd" d="M54.683 15.515c-.872 4.944 2.27 8.658 7.365 8.658 5.095 0 9.546-3.714 10.418-8.658.871-4.944-2.27-8.658-7.365-8.658-5.095 0-9.546 3.714-10.418 8.658Zm13.037 0c-.433 2.46-2.566 4.353-4.913 4.353-2.348 0-3.812-1.894-3.379-4.353.434-2.46 2.566-4.354 4.914-4.354s3.812 1.894 3.378 4.354Z" clip-rule="evenodd"/><path fill="#fff" d="m48.7 7.201-2.19 12.421h7.443l-.738 4.182h-8.067c-2.847 0-3.736-1.476-3.324-3.813l2.256-12.79h4.62Z"/></g><defs><clipPath id="a"><path fill="#fff" d="M.064 0h187.317v32H.064z"/></clipPath></defs></svg>