<svg xmlns="http://www.w3.org/2000/svg" width="602" height="328" fill="none"><path stroke="url(#a)" stroke-width="2.6" d="m6.725 59.351 17.176-6.87 16.603 6.87 20.61-10.878h20.611l18.321 10.878 14.313-10.878 9.16-18.32 24.618 22.328 33.207-13.168 18.893 9.16 38.931-9.16 13.168 13.168 16.03-4.008h15.458l12.023 10.878h22.329l15.458 9.733 25.763-29.77 19.466 20.037 22.9-10.878 22.329 4.008 29.771-13.168 26.336 4.008 40.076-13.168 37.214-9.733 40.648-18.893"/><path stroke="url(#b)" stroke-width="2.6" d="m6.725 188.168 17.176-6.87 16.603 6.87 20.61-10.878h20.611l18.321 10.878 14.313-10.878 9.16-18.32 24.618 22.328 33.207-13.168 18.893 9.16 38.931-9.16 13.168 13.168 16.03-4.008h15.458l12.023 10.878h22.329l15.458 9.733 25.763-29.771 19.466 20.038 22.9-10.878 22.329 4.008 29.771-13.168 26.336 4.008 40.076-13.168 37.214-9.733 40.648-18.893"/><path stroke="url(#c)" stroke-width="2.6" d="m6.725 316.412 17.176-6.87 16.603 6.87 20.61-10.877h20.611l18.321 10.877 14.313-10.877 9.16-18.321 24.618 22.328 33.207-13.168 18.893 9.161 38.931-9.161 13.168 13.168 16.03-4.007h15.458l12.023 10.877h22.329l15.458 9.733 25.763-29.771 19.466 20.038 22.9-10.877 22.329 4.007 29.771-13.168 26.336 4.008 40.076-13.168 37.214-9.733 40.648-18.893"/><path stroke="url(#d)" stroke-width="2.6" d="m1 120.038 25.19-6.297 17.176 6.297 16.03-6.297H76l24.618 6.297 17.748-13.74 24.046 7.443 12.023-7.443 21.756 7.443 19.465-7.443 24.046 7.443 21.183-7.443 16.031 7.443h8.588l11.45-13.168 10.306 13.168 14.885-7.443h16.031l21.755 7.443 24.046-13.168 21.756 13.168 13.74-7.443 23.474 13.74 17.748-6.297h32.061l18.893-7.443h22.901l14.885-5.725h44.084L601 79.39"/><path stroke="url(#e)" stroke-width="2.6" d="m1 248.855 25.19-6.298 17.176 6.298 16.03-6.298H76l24.618 6.298 17.748-13.74 24.046 7.442 12.023-7.442 21.756 7.442 19.465-7.442 24.046 7.442 21.183-7.442 16.031 7.442h8.588l11.45-13.168 10.306 13.168 14.885-7.442h16.031l21.755 7.442 24.046-13.168 21.756 13.168 13.74-7.442 23.474 13.74 17.748-6.298h32.061l18.893-7.442h22.901l14.885-5.726h44.084L601 208.206"/><circle cx="83" cy="49" r="5" fill="#E79740" opacity=".9"/><circle cx="61" cy="306" r="5" fill="#7E4BD0" opacity=".9"/><circle cx="83" cy="178" r="5" fill="#E30278" opacity=".9"/><circle cx="515" cy="235" r="5" fill="#3DC7C8" opacity=".9"/><circle cx="531" cy="100" r="5" fill="#326DC9" opacity=".9"/><defs><linearGradient id="a" x1=".5" x2="625.5" y1="69" y2="69" gradientUnits="userSpaceOnUse"><stop stop-color="#E79740" stop-opacity=".04"/><stop offset=".505" stop-color="#E79740"/><stop offset="1" stop-color="#E79740" stop-opacity=".04"/></linearGradient><linearGradient id="b" x1="-8" x2="623" y1="198" y2="198" gradientUnits="userSpaceOnUse"><stop stop-color="#E30278" stop-opacity=".04"/><stop offset=".5" stop-color="#E30278"/><stop offset="1" stop-color="#E30278" stop-opacity="0"/></linearGradient><linearGradient id="c" x1="-9" x2="624.5" y1="326.145" y2="326.145" gradientUnits="userSpaceOnUse"><stop stop-color="#7E4BD0" stop-opacity="0"/><stop offset=".49" stop-color="#7E4BD0"/><stop offset="1" stop-color="#7E4BD0" stop-opacity="0"/></linearGradient><linearGradient id="d" x1="-15.5" x2="647" y1="128" y2="120" gradientUnits="userSpaceOnUse"><stop stop-color="#326DC9" stop-opacity=".04"/><stop offset=".495" stop-color="#326DC9"/><stop offset="1" stop-color="#326DC9" stop-opacity=".04"/></linearGradient><linearGradient id="e" x1="-13.5" x2="622.5" y1="254" y2="254" gradientUnits="userSpaceOnUse"><stop stop-color="#3DC7C8" stop-opacity=".1"/><stop offset=".495" stop-color="#3DC7C8"/><stop offset=".495" stop-color="#3DC7C8" stop-opacity=".979"/><stop offset="1" stop-color="#3DC7C8" stop-opacity="0"/></linearGradient></defs></svg>