<svg xmlns="http://www.w3.org/2000/svg" width="141" height="41" fill="none"><rect width="140" height="40" x=".935" y=".227" fill="#fff" fill-opacity=".05" rx="8"/><g filter="url(#a)"><path fill="url(#b)" d="M17.167 8.626c-.27.287-.431.732-.431 1.308V30.52c0 .577.16 1.02.43 1.308l.07.067 11.531-11.532v-.271L17.236 8.558l-.07.068Z"/><path fill="url(#c)" d="m32.61 24.207-3.843-3.845v-.271l3.844-3.844.087.049 4.554 2.587c1.3.74 1.3 1.948 0 2.689l-4.554 2.587-.088.048Z"/><g filter="url(#d)"><path fill="url(#e)" d="m32.698 24.158-3.932-3.931-11.6 11.6c.43.454 1.137.51 1.935.057l13.597-7.726Z"/></g><path fill="url(#f)" d="M32.698 16.295 19.1 8.57c-.798-.454-1.506-.397-1.934.057l11.6 11.6 3.93-3.932Z"/></g><path fill="#fff" d="M51.873 10.528c0 .78-.23 1.4-.693 1.864-.525.551-1.21.827-2.051.827-.807 0-1.492-.28-2.056-.838-.564-.56-.846-1.252-.846-2.078 0-.828.282-1.52.846-2.079.563-.56 1.25-.838 2.056-.838.4 0 .782.078 1.145.233.364.157.655.364.873.624l-.49.491c-.37-.442-.879-.662-1.53-.662a2.12 2.12 0 0 0-1.525.62c-.43.413-.643.95-.643 1.61 0 .66.214 1.197.643 1.61.43.413.937.62 1.526.62.623 0 1.144-.208 1.56-.624.27-.27.426-.648.468-1.13h-2.028v-.672h2.705c.028.146.04.287.04.422Zm4.291-2.333h-2.543v1.77h2.294v.672H53.62v1.77h2.543v.687h-3.26V7.51h3.26v.686Zm3.026 4.899h-.718V8.195h-1.56V7.51h3.838v.686h-1.56v4.9Zm4.336 0V7.51h.718v5.585h-.718Zm3.901 0h-.718V8.195h-1.56V7.51h3.838v.686h-1.56v4.9Zm8.824-.721c-.55.564-1.231.846-2.048.846-.816 0-1.498-.282-2.047-.846-.549-.564-.822-1.255-.822-2.071 0-.817.273-1.507.822-2.071.549-.564 1.231-.847 2.047-.847.812 0 1.493.284 2.044.85.551.567.827 1.256.827 2.068 0 .816-.275 1.507-.823 2.07Zm-3.565-.468c.413.418.919.627 1.517.627a2.05 2.05 0 0 0 1.517-.627c.414-.42.621-.954.621-1.603 0-.65-.207-1.184-.62-1.603a2.047 2.047 0 0 0-1.518-.627c-.598 0-1.104.209-1.517.627-.412.419-.62.953-.62 1.603s.208 1.184.62 1.603Zm5.394 1.189V7.51h.874l2.714 4.344h.03l-.03-1.076V7.51h.718v5.585h-.75l-2.84-4.555h-.03l.03 1.076v3.48h-.715Z"/><path stroke="#fff" stroke-miterlimit="10" stroke-width=".169" d="M51.873 10.528c0 .78-.23 1.4-.693 1.864-.525.551-1.21.827-2.051.827-.807 0-1.492-.28-2.056-.838-.564-.56-.846-1.252-.846-2.078 0-.828.282-1.52.846-2.079.563-.56 1.25-.838 2.056-.838.4 0 .782.078 1.145.233.364.157.655.364.873.624l-.49.491c-.37-.442-.879-.662-1.53-.662a2.12 2.12 0 0 0-1.525.62c-.43.413-.643.95-.643 1.61 0 .66.214 1.197.643 1.61.43.413.937.62 1.526.62.623 0 1.144-.208 1.56-.624.27-.27.426-.648.468-1.13h-2.028v-.672h2.705c.028.146.04.287.04.422Zm4.291-2.333h-2.543v1.77h2.294v.672H53.62v1.77h2.543v.687h-3.26V7.51h3.26v.686Zm3.026 4.899h-.718V8.195h-1.56V7.51h3.838v.686h-1.56v4.9Zm4.336 0V7.51h.718v5.585h-.718Zm3.901 0h-.718V8.195h-1.56V7.51h3.838v.686h-1.56v4.9Zm8.824-.721c-.55.564-1.231.846-2.048.846-.816 0-1.498-.282-2.047-.846-.549-.564-.822-1.255-.822-2.071 0-.817.273-1.507.822-2.071.549-.564 1.231-.847 2.047-.847.812 0 1.493.284 2.044.85.551.567.827 1.256.827 2.068 0 .816-.275 1.507-.823 2.07Zm-3.565-.468c.413.418.919.627 1.517.627a2.05 2.05 0 0 0 1.517-.627c.414-.42.621-.954.621-1.603 0-.65-.207-1.184-.62-1.603a2.047 2.047 0 0 0-1.518-.627c-.598 0-1.104.209-1.517.627-.412.419-.62.953-.62 1.603s.208 1.184.62 1.603Zm5.394 1.189V7.51h.874l2.714 4.344h.03l-.03-1.076V7.51h.718v5.585h-.75l-2.84-4.555h-.03l.03 1.076v3.48h-.715Z"/><path fill="#fff" d="M71.446 21.597c-2.19 0-3.974 1.665-3.974 3.959 0 2.28 1.784 3.958 3.974 3.958 2.19 0 3.974-1.679 3.974-3.958-.001-2.294-1.785-3.959-3.974-3.959Zm0 6.36c-1.2 0-2.234-.99-2.234-2.4 0-1.425 1.035-2.4 2.234-2.4 1.2 0 2.233.975 2.233 2.4 0 1.409-1.034 2.4-2.233 2.4Zm-8.67-6.36c-2.189 0-3.973 1.665-3.973 3.959 0 2.28 1.784 3.958 3.973 3.958 2.19 0 3.975-1.679 3.975-3.958 0-2.294-1.785-3.959-3.975-3.959Zm0 6.36c-1.2 0-2.234-.99-2.234-2.4 0-1.425 1.036-2.4 2.234-2.4 1.2 0 2.234.975 2.234 2.4.001 1.409-1.034 2.4-2.234 2.4Zm-10.31-5.144v1.679h4.018c-.12.944-.434 1.634-.915 2.114-.584.584-1.499 1.23-3.104 1.23-2.474 0-4.408-1.996-4.408-4.47 0-2.474 1.934-4.468 4.408-4.468 1.335 0 2.31.525 3.03 1.2l1.184-1.185c-1.005-.96-2.34-1.694-4.214-1.694-3.389 0-6.238 2.758-6.238 6.147 0 3.39 2.85 6.148 6.238 6.148 1.83 0 3.21-.6 4.288-1.725 1.11-1.11 1.455-2.669 1.455-3.928 0-.39-.03-.75-.09-1.05h-5.653v.002Zm42.17 1.304c-.329-.885-1.334-2.52-3.388-2.52-2.04 0-3.735 1.605-3.735 3.959 0 2.219 1.68 3.958 3.93 3.958 1.813 0 2.863-1.11 3.299-1.754l-1.35-.9c-.45.66-1.065 1.094-1.95 1.094-.884 0-1.514-.405-1.919-1.2l5.293-2.189-.18-.448Zm-5.398 1.32c-.044-1.53 1.185-2.31 2.07-2.31.69 0 1.274.346 1.47.84l-3.54 1.47Zm-4.303 3.838h1.739V17.64h-1.739v11.635Zm-2.85-6.793h-.06c-.39-.465-1.14-.885-2.083-.885-1.98 0-3.794 1.74-3.794 3.974 0 2.22 1.814 3.944 3.794 3.944.944 0 1.694-.42 2.084-.9h.06v.57c0 1.515-.81 2.325-2.115 2.325-1.064 0-1.724-.764-1.994-1.41l-1.515.63c.435 1.05 1.59 2.34 3.51 2.34 2.039 0 3.763-1.2 3.763-4.125v-7.107h-1.649v.644Zm-1.993 5.474c-1.2 0-2.205-1.005-2.205-2.385 0-1.395 1.005-2.414 2.204-2.414 1.184 0 2.114 1.02 2.114 2.414 0 1.38-.93 2.385-2.114 2.385Zm22.693-10.316h-4.162v11.635h1.736v-4.408h2.425c1.924 0 3.817-1.394 3.817-3.614 0-2.22-1.892-3.613-3.816-3.613Zm.044 5.607h-2.47V19.26h2.47c1.299 0 2.036 1.075 2.036 1.994 0 .901-.737 1.994-2.036 1.994Zm10.734-1.67c-1.258 0-2.56.553-3.099 1.781l1.541.643c.33-.643.944-.853 1.587-.853.899 0 1.812.539 1.827 1.496v.12c-.315-.18-.989-.448-1.812-.448-1.661 0-3.353.913-3.353 2.62 0 1.556 1.362 2.559 2.889 2.559 1.167 0 1.811-.524 2.215-1.139h.06v.898h1.677v-4.46c.001-2.065-1.542-3.218-3.532-3.218Zm-.211 6.376c-.568 0-1.361-.284-1.361-.988 0-.898.988-1.243 1.842-1.243.762 0 1.122.165 1.586.39a2.106 2.106 0 0 1-2.067 1.841Zm9.851-6.122-1.991 5.044h-.06l-2.066-5.044h-1.871l3.098 7.05-1.766 3.923h1.811l4.776-10.973h-1.931Zm-15.643 7.444h1.736V17.64h-1.736v11.635Z"/><defs><linearGradient id="b" x1="27.745" x2="12.125" y1="9.716" y2="25.336" gradientUnits="userSpaceOnUse"><stop stop-color="#00A0FF"/><stop offset=".007" stop-color="#00A1FF"/><stop offset=".26" stop-color="#00BEFF"/><stop offset=".512" stop-color="#00D2FF"/><stop offset=".76" stop-color="#00DFFF"/><stop offset="1" stop-color="#00E3FF"/></linearGradient><linearGradient id="c" x1="38.945" x2="16.424" y1="20.227" y2="20.227" gradientUnits="userSpaceOnUse"><stop stop-color="#FFE000"/><stop offset=".409" stop-color="#FFBD00"/><stop offset=".775" stop-color="orange"/><stop offset="1" stop-color="#FF9C00"/></linearGradient><linearGradient id="e" x1="30.563" x2="9.38" y1="22.362" y2="43.545" gradientUnits="userSpaceOnUse"><stop stop-color="#FF3A44"/><stop offset="1" stop-color="#C31162"/></linearGradient><linearGradient id="f" x1="14.246" x2="23.704" y1="1.775" y2="11.233" gradientUnits="userSpaceOnUse"><stop stop-color="#32A071"/><stop offset=".069" stop-color="#2DA771"/><stop offset=".476" stop-color="#15CF74"/><stop offset=".801" stop-color="#06E775"/><stop offset="1" stop-color="#00F076"/></linearGradient><filter id="a" width="21.491" height="24.194" x="16.736" y="8.13" color-interpolation-filters="sRGB" filterUnits="userSpaceOnUse"><feFlood flood-opacity="0" result="BackgroundImageFix"/><feColorMatrix in="SourceAlpha" result="hardAlpha" values="0 0 0 0 0 0 0 0 0 0 0 0 0 0 0 0 0 0 127 0"/><feOffset dy="-.127"/><feComposite in2="hardAlpha" operator="out"/><feColorMatrix values="0 0 0 0 0 0 0 0 0 0 0 0 0 0 0 0 0 0 0.12 0"/><feBlend in2="BackgroundImageFix" result="effect1_dropShadow_69_5007"/><feColorMatrix in="SourceAlpha" result="hardAlpha" values="0 0 0 0 0 0 0 0 0 0 0 0 0 0 0 0 0 0 127 0"/><feOffset dy=".127"/><feComposite in2="hardAlpha" operator="out"/><feColorMatrix values="0 0 0 0 1 0 0 0 0 1 0 0 0 0 1 0 0 0 0.25 0"/><feBlend in2="effect1_dropShadow_69_5007" result="effect2_dropShadow_69_5007"/><feBlend in="SourceGraphic" in2="effect2_dropShadow_69_5007" result="shape"/></filter><filter id="d" width="15.531" height="12.097" x="17.167" y="20.1" color-interpolation-filters="sRGB" filterUnits="userSpaceOnUse"><feFlood flood-opacity="0" result="BackgroundImageFix"/><feColorMatrix in="SourceAlpha" result="hardAlpha" values="0 0 0 0 0 0 0 0 0 0 0 0 0 0 0 0 0 0 127 0"/><feOffset dy="-.127"/><feComposite in2="hardAlpha" operator="out"/><feColorMatrix values="0 0 0 0 0 0 0 0 0 0 0 0 0 0 0 0 0 0 0.08 0"/><feBlend in2="BackgroundImageFix" result="effect1_dropShadow_69_5007"/><feBlend in="SourceGraphic" in2="effect1_dropShadow_69_5007" result="shape"/></filter></defs></svg>